<svg xmlns="http://www.w3.org/2000/svg" width="707.423" height="731.059" viewBox="0 0 707.423 731.059">
  <title>avatar-vector</title>
  <path d="M1132.887,703.917l-4.057,4.608c-9.355,9.506-18.708,19.014-28.859,27.691a378.921,378.921,0,0,1-60.221,42.068,356.244,356.244,0,0,1-65.027,28.535,342.249,342.249,0,0,1-60.169,13.851c-12.6,1.7-25.232,2.711-37.937,3.227a333.332,333.332,0,0,1-41.3-1.308A345.117,345.117,0,0,1,765.856,809.2a351.913,351.913,0,0,1-65.808-27.282,356.328,356.328,0,0,1-55.889-37.268,349.926,349.926,0,0,1-32.069-29.478q-1.137-1.178-2.382-2.236c-3.621-4.292-7.536-8.324-11.226-12.56-.454-.793-1.112-1.441-1.6-2.2a4.748,4.748,0,0,1,.861-6.372,21.451,21.451,0,0,1,5.175-3.492c8.686-3.945,17.315-8.013,25.8-12.379,12.065-6.21,24.882-10.654,37.306-16.021,6.087-2.629,12.261-5.06,18.339-7.715,2.825-1.234,2.86-1.511.589-3.575a71.664,71.664,0,0,1-21.559-34.381q-6.982-25.305,6.681-47.911c6.6-10.925,15.293-19.738,25.167-27.631,15.829-12.656,33.856-20.714,53.242-26.044a83.843,83.843,0,0,1,10.041-2.49c1.928.377,2.651,2.121,3.683,3.424,4.287,5.413,8.925,10.514,13.63,15.555a95.9,95.9,0,0,0,22.054,17.184c1.542.9,3.323,1.557,4.243,3.3a168.5,168.5,0,0,1,2.388,25.128c-1.222,1.805-2,.308-2.588-.5-1.924-2.635-3.684-5.389-5.617-8.02-2.9-3.945-5.7-7.97-9.242-11.391a27.911,27.911,0,0,0-6.854-4.861c-2.066-1.041-4.068-.538-5.008,1.183a3.418,3.418,0,0,0,1.2,4.789c10.327,7.041,16.089,17.773,22.6,27.882a30.683,30.683,0,0,1,3.807,7.2c-.233,2.565-.345,5.174-2.518,7.046-1.231.06-1.94-.873-2.8-1.5-7.8-5.63-15.334-11.634-24-15.97-7.022-3.51-14.555-4.974-22.223-6.073a71.754,71.754,0,0,0-11.68-.523c-2.865.057-4.365,1.244-4.421,3.363-.052,1.955,1.616,3.679,4.222,3.772,4.541.162,9.04.624,13.553,1.105a54.639,54.639,0,0,1,25,9.351c5.347,3.6,10.63,7.3,15.684,11.3.846.672,1.8,1.27,1.985,2.481a6.409,6.409,0,0,0,.5,4.478c5.049,9.382,11.3,17.741,20,24.095,7.65,5.587,16.3,8.65,25.533,10.289a86.581,86.581,0,0,0,34.342-.318c9.044-2.025,16.886-6.637,23.9-12.54,8.93-7.511,15.139-17.035,19.615-27.746.6-1.445.773-2.746-.28-4.073-5.441-6.858-7.647-14.968-8.832-23.415-.92-6.554-1.424-13.157-1.857-19.762.107-1.385-.433-2.721-.321-4.107.295-1.353,1.48-1.753,2.51-2.294a155.272,155.272,0,0,0,33.927-23.519A229.875,229.875,0,0,0,961.1,509.451c.775-.885,1.513-1.848,2.846-1.921a118.309,118.309,0,0,1,19.5,6.018c8.149,3.112,16.276,6.277,23.777,10.82a97.789,97.789,0,0,1,13.626,10.4,88.214,88.214,0,0,1,19.242,23.457,93.084,93.084,0,0,1,10.544,32.471c3.058,21.228-2.894,40.06-15.926,56.842-2.268,2.92-2.313,2.954,1.056,4.54,13.656,6.431,27.913,11.407,41.814,17.241a409.434,409.434,0,0,1,49.491,24.6,26.739,26.739,0,0,1,4.389,3.218C1134.355,699.758,1134.494,700.469,1132.887,703.917Z" transform="translate(-513.377 -93.802)" fill="#293346"/>
  <path d="M1132.887,703.917c1.292-3.493-.564-5.532-3.2-7.4-7.669-5.431-16.175-9.328-24.46-13.648-17.5-9.121-35.9-16.1-54.188-23.4-5.809-2.317-11.423-5.122-17.213-7.491-2.308-.945-2.36-1.711-.818-3.506a75.537,75.537,0,0,0,16.564-34.462c2.442-11.737,1.069-23.32-1.976-34.742-8.015-30.057-27.642-49.676-55.709-61.643a229.977,229.977,0,0,0-28.232-9.772c-.27-1.48.766-2.339,1.586-3.284,11.4-13.141,20.157-27.944,27.576-43.611a183.777,183.777,0,0,0,10.154-26.71c.988-3.348,1.692-3.552,4.961-2.6,11.545,3.374,22.8,2.3,33.784-2.355,2.421-1.026,4.72-2.336,7.053-3.559,10.074-5.283,15.714-13.755,17.729-24.764,1.895-10.347,1.648-20.785.914-31.213a84.808,84.808,0,0,0-5.614-26.265,62.948,62.948,0,0,0-5-9.67,17.289,17.289,0,0,0-19.287-7.769,68.742,68.742,0,0,0-14.5,5.434c-.93.5-1.8,1.32-3.017.862a5.332,5.332,0,0,1-1.231-3.782,259.588,259.588,0,0,0-12.6-65.845c-5.389-16.555-13.153-31.763-24.509-45.168-6.181-7.3-12.327-14.512-19.9-20.4-.9-.7-2.107-1.544-.382-2.7a32.144,32.144,0,0,0,10.96-5.913A39,39,0,0,0,986.7,164.013a41.157,41.157,0,0,0-3.411-23.6c-.468-1.056-1.209-2.065-.8-3.339a328.1,328.1,0,0,1,70.235,33.284q123.622,78.1,158.525,220.2a333.281,333.281,0,0,1,8.386,107.428q-9.5,115.171-84.275,203.431C1134.6,702.309,1133.712,703.087,1132.887,703.917Z" transform="translate(-513.377 -93.802)" fill="#7410f5"/>
  <path d="M758.782,510.509c-10.425,2.814-20.833,5.7-30.828,9.841-20.344,8.427-37.938,20.736-51.622,38.076-6.718,8.514-11.99,17.973-13.7,29.007a62.819,62.819,0,0,0,9.249,44.308,73.013,73.013,0,0,0,13.634,16.56c.948.829,1.835,1.728,3.042,2.87-7.143,3.011-13.925,6.04-20.832,8.751-20.554,8.07-40.579,17.3-60.325,27.158-2.75,1.373-5.668,2.4-8.145,4.327-3.122,2.434-3.483,4.029-1.333,7.3.348.53.689,1.063,1.034,1.594.232.529-.067.611-.493.586a300.066,300.066,0,0,1-26.61-35.165,352.2,352.2,0,0,1-52.462-130.19,342.407,342.407,0,0,1-5.008-89.8c5.442-69.872,29.059-133,71.535-188.808,39.724-52.19,90.362-90.186,151.23-114.591a304.411,304.411,0,0,1,41.887-13.6c.574,1.325-.374,2.26-.919,3.237a49.3,49.3,0,0,0-6.069,24.51,40.88,40.88,0,0,0,1.377,9.38c1.648,7.427,5.549,13.6,10.625,19.129a38.63,38.63,0,0,1,3.519,3.728c.655,2.092-1.133,2.447-2.319,3.044a123.981,123.981,0,0,0-16.1,9.683c-8.2,5.82-14.562,13.455-20.418,21.422A177.016,177.016,0,0,0,716.945,295.7a272.484,272.484,0,0,0-4.845,36.146c-.282,5.334.477,10.684.725,16.029.137,2.962.731,5.912.2,8.89a4.109,4.109,0,0,1-2.93-.025,114.728,114.728,0,0,0-14.241-2.346c-7.02-.772-15.407,1.861-19.271,9.895a43.631,43.631,0,0,0-4.232,17.35c-.6,15,.825,29.807,6.627,43.838,3.49,8.439,8.537,15.873,16.364,20.962,7.086,4.608,15.137,6.475,23.37,7.727a67.239,67.239,0,0,0,10.323.57c3.661-.009,4.026.3,5.241,3.846,3.2,9.371,6.321,18.775,10.9,27.6a202.99,202.99,0,0,0,12.134,20.672C758.049,507.942,759.131,508.955,758.782,510.509Z" transform="translate(-513.377 -93.802)" fill="#7410f5"/>
  <path d="M772.944,166.4c-2.885-9.376-1.686-18.568,1.266-27.676,1.15-3.548,3.2-6.667,4.822-9.988,5.543-8.064,11.827-15.326,20.143-20.788,17.7-11.624,37.187-15.279,57.97-13.856,14.016.959,27.654,3.874,41.26,7.219,16.467,4.048,32.95,8.013,49.346,12.357,14.374,3.808,26.661,10.4,34.734,23.407,3.847,7.656,6.239,15.654,5.3,24.329-1.226,11.333-6.11,20.709-15.222,27.74a10.875,10.875,0,0,1-3.981-.773c-19.285-6.01-38.7-11.483-58.847-13.81-12-1.386-24-2.768-36.058-3.617q-20.1-1.415-40.24-2.216c-12.607-.481-25.212-1.131-37.813-1.726-6.3-.3-12.512.425-18.765.178C775.516,167.129,774.105,167.384,772.944,166.4Z" transform="translate(-513.377 -93.802)" fill="#59372c"/>
  <path d="M609.751,712.39c5.772,5.522,11.454,11.141,17.33,16.549A359.019,359.019,0,0,0,733.244,796.91a348.007,348.007,0,0,0,81.868,22.751,362.509,362.509,0,0,0,38.475,3.562,323.883,323.883,0,0,0,39.2-.785,349.2,349.2,0,0,0,74.977-14.172,366.523,366.523,0,0,0,124.642-66.62,384.408,384.408,0,0,0,34.142-31.294c.672-.693,1.162-1.667,2.278-1.827A149.568,149.568,0,0,1,1115.2,722.98q-71.462,69.866-168.782,92.7a343.024,343.024,0,0,1-110.981,7.658q-110.048-10.461-195.215-80.959a291.871,291.871,0,0,1-30.984-29.45C609.059,712.411,609.323,712.322,609.751,712.39Z" transform="translate(-513.377 -93.802)" fill="#7411f4"/>
  <path d="M609.751,712.39l-.51.535a121.709,121.709,0,0,1-10.78-12.038l.493-.585C602.528,704.354,606.5,708.049,609.751,712.39Z" transform="translate(-513.377 -93.802)" fill="#6f1fdb"/>
  <path d="M758.782,510.509c-4.307-6.512-8.42-13.139-12.194-19.98-5.643-10.23-9.535-21.171-13.169-32.21-.7-2.117-1.554-3.048-3.931-2.9-6.758.414-13.379-.724-19.947-2.238-15.56-3.586-25.536-13.461-31.5-27.875-3.648-8.817-5.147-18.106-6.062-27.53-.846-8.72-.917-17.4,1.061-26a32.707,32.707,0,0,1,2.552-7.162c3.9-7.9,10.68-11.855,19.483-11.039a105.827,105.827,0,0,1,17.682,3.034c1.347,1.142,1.154,2.828,1.25,4.266a230.149,230.149,0,0,0,3.132,23.56,4.5,4.5,0,0,1,.03,1.607c-1.034,1.753-1.631.2-2.07-.406-1.225-1.688-2.247-3.517-3.517-5.186a49.971,49.971,0,0,0-5.043-5.353c-.812-.793-1.795-1.519-2.839-.481-1.124,1.117-.144,2.048.622,2.773,6.593,6.235,10.112,14.344,13.692,22.408,1.237,2.784.7,3.433-2.325,3.084-.451-.052-.9-.128-1.353-.161-2.6-.193-5,.315-6.485,2.619s-.889,4.727.364,6.98c1.741,3.128,4.338,5.587,6.641,8.27.654.761,1.625,1.407,2.609.5.912-.84.57-1.895-.067-2.718-1.445-1.867-3.074-3.585-4.51-5.462a17.39,17.39,0,0,1-1.094-1.564c-.76-1.263-1.609-2.595-.6-4.035,1-1.424,2.584-1.173,4-.883a18.972,18.972,0,0,1,5.843,2.209,3.5,3.5,0,0,0,3.854.185c4.861-.176,4.862-.176,6.539-5.077a5.034,5.034,0,0,1,.726-1.448c4.628-6.192,7.648-13.189,10.012-20.469,3.424-10.545,6.27-21.263,9.242-31.942a4.947,4.947,0,0,1,2.9-3.364c14.754-6.849,29.4-13.9,43.37-22.288A223.208,223.208,0,0,0,822.876,306.1c6.3-5.09,11.885-10.94,17.875-16.359,5.526-5,10.158-10.879,15.122-16.426,2.141-2.392,2.974-2.449,4.621.371,6.37,10.9,14.8,20.218,22.936,29.738a126.936,126.936,0,0,0,28.535,24.687c.691.44,2.389.627,1.356,2.255-6.626,1.065-13.351,1.336-19.96,2.52-.358.064-.725.082-1.075.174-2.126.557-4.938-.062-6.037,2.405a14.538,14.538,0,0,0-.942,9.585c.628,2.461,2.082,2.9,4.915,1.771A91.815,91.815,0,0,1,908.8,341.6c8.436-1.432,16.777-1.355,25.011,1.433,4.554,1.541,9.234,2.711,13.9,3.894,1.53.387,3.237,1.09,4.362-.855.83-1.05,1.926-.835,3-.593a179.669,179.669,0,0,0,18.272,3c3.9.463,4.208.833,5.118,4.764,2.364,10.214,6.144,19.955,9.957,29.683,1.062,2.709,1.944,5.479,2.848,8.24,2.411,7.371,5.338,14.474,10.375,20.515,2.631,3.134,5.493,2.784,7-.967,1.426-3.551,1.985-7.35,2.76-11.071a429.268,429.268,0,0,0,7.144-45.376,141.306,141.306,0,0,0,.7-17.916c-.038-1.321-.3-2.747.738-3.891a53.777,53.777,0,0,1,18.623-7.351c7.575-1.49,13.627,1.148,18.063,7.267,5.658,7.8,8.525,16.776,10.1,26.174a132.171,132.171,0,0,1,.676,41.195c-1.675,11.4-7.262,20.177-17.452,26.189-11.74,6.925-24.114,9.73-37.57,7.708a15.9,15.9,0,0,1-4.959-1.361c-2.5-1.306-3.151-.259-3.789,1.993a166.952,166.952,0,0,1-9.006,24.489c-7.913,17.145-17.367,33.312-29.907,47.543a17.8,17.8,0,0,0-1.1,1.548c-5.931,6.364-11.736,12.833-18.115,18.783a158.843,158.843,0,0,1-35.95,24.745,9.024,9.024,0,0,0-.877.59A6.6,6.6,0,0,1,905.556,554c-11.607,4.805-23.819,6.977-36.231,8.1a134.044,134.044,0,0,1-45.094-3.114,113.3,113.3,0,0,1-19.62-7.249,12.1,12.1,0,0,1-3.2-2.478c-17.191-9.1-30.194-22.808-41.854-38A7.082,7.082,0,0,0,758.782,510.509Z" transform="translate(-513.377 -93.802)" fill="#e6a37d"/>
  <path d="M800.225,597.855a18.253,18.253,0,0,0,2.074-7.1,124.4,124.4,0,0,1,1.483-14.229,3.921,3.921,0,0,1,2.82-.756c6.442-.183,12.867-.666,19.3-1.016a254.236,254.236,0,0,0,32.408-4.194c12.518-2.314,24.927-5.095,36.911-9.519,3.586-1.323,7.028-2.978,10.581-4.371,1.058-.415,2.116-1.215,3.308-.3,1.065,8.915,1.188,17.942,3.321,26.729,1.476,6.08,3.776,11.749,7.848,16.572a2.307,2.307,0,0,1,.484,2.677c-8.541,21.408-22.776,37.148-45.778,42.428a77.188,77.188,0,0,1-52.321-6.026c-13.222-6.5-21.76-17.5-28.045-30.5-.635-1.313-.046-2.015.609-2.874A47.107,47.107,0,0,1,800.225,597.855Z" transform="translate(-513.377 -93.802)" fill="#e6a37d"/>
  <path d="M889.264,685.146a234.719,234.719,0,0,1-66.314-9.941c-22.469-6.576-42.763-17.367-61.588-31.1a51.869,51.869,0,0,1-5.369-4.589c-1.928-1.857-2.177-4.461-.79-6.114a4.869,4.869,0,0,1,6.23-.431c4.911,3.873,9.844,7.695,15.093,11.114a194.276,194.276,0,0,0,67.08,27.355,204.263,204.263,0,0,0,26.538,3.913c6.051.451,12.1,1.059,18.163.936a225.562,225.562,0,0,0,37.183-3.976c6.039-1.138,12.056-2.395,18.066-3.679,2.587-.552,4.208.54,5.2,2.757.891,1.984.045,4.055-2.251,5.143-4.555,2.159-9.569,2.672-14.439,3.575-7.725,1.431-15.484,2.763-23.281,3.7C901.513,684.683,894.192,685.406,889.264,685.146Z" transform="translate(-513.377 -93.802)" fill="#57637a"/>
  <path d="M909.109,556.375c-2.068.115-3.766,1.3-5.545,2.112-12.112,5.523-24.9,8.8-37.859,11.444-8.219,1.679-16.492,3.2-24.807,4.27a198.641,198.641,0,0,1-21.876,1.8c-4.981.088-9.936.836-14.931.581a.86.86,0,0,1-.232-1.145,238.2,238.2,0,0,0-2.453-26.179c4.165,1.968,8.292,4,12.611,5.646,9.366,3.562,19.077,5.374,29.006,6.449a124.285,124.285,0,0,0,23.087.3c14.336-1.123,28.537-3.412,41.806-9.5a3.877,3.877,0,0,1,.793-.18A13.519,13.519,0,0,1,909.109,556.375Z" transform="translate(-513.377 -93.802)" fill="#d07850"/>
  <path d="M863.335,722.721c-9.413.126-19.9-1.243-30.367-2.826a9.334,9.334,0,0,1-2.074-.647c-2.4-.982-3.582-2.978-3.027-5.059a4.491,4.491,0,0,1,5.469-3.232,164.338,164.338,0,0,0,32.367,2.91,117,117,0,0,0,52.655-12.331c4.615-2.332,9.18-4.761,13.784-7.113a8.71,8.71,0,0,1,4.685-1.178,3.883,3.883,0,0,1,3.281,2.529,3.724,3.724,0,0,1-.556,4.08c-1.284,1.536-3.1,2.191-4.754,3.1-12.507,6.873-25.353,12.987-39.334,16.24A133.391,133.391,0,0,1,863.335,722.721Z" transform="translate(-513.377 -93.802)" fill="#57637a"/>
  <path d="M764.972,732.5q-.72-19.6-1.441-39.206a7.113,7.113,0,0,1,.512-3.461,4.034,4.034,0,0,1,4.084-2.6,3.938,3.938,0,0,1,3.76,3.013,22.7,22.7,0,0,1,.622,6.211c.73,20.33,1.332,40.666,2.189,60.991.5,11.966.9,23.955,2.822,35.818a3.992,3.992,0,0,1-2.443,4.668,4.125,4.125,0,0,1-5.277-1.577c-1.366-1.814-1.585-4.019-1.8-6.2-1.677-17.095-2.409-34.241-2.8-51.4-.047-2.086-.006-4.174-.006-6.261Z" transform="translate(-513.377 -93.802)" fill="#faccb2"/>
  <path d="M960.853,737.4c.425,15.313.811,29.2,1.193,43.086a12.739,12.739,0,0,1-.885,5.6,4.121,4.121,0,0,1-5.025,2.7c-2.309-.5-3.291-2.26-3.234-4.437.488-18.624-.884-37.207-1.239-55.811-.218-11.435.094-22.883-.766-34.306-.239-3.171,1.4-5.353,3.912-5.629,2.486-.273,4.587,1.545,4.854,4.771.4,4.881.578,9.788.669,14.687C960.522,718.309,960.347,728.573,960.853,737.4Z" transform="translate(-513.377 -93.802)" fill="#faccb2"/>
  <path d="M800.225,597.855c-.859,3.045-2.817,5.361-5,7.528-2.7-2.984-6.155-5.016-9.358-7.345-6.368-4.631-12.757-9.248-20.224-12.085-5.213-1.981-10.67-2.659-16.125-3.4a80.121,80.121,0,0,0-10.016-.616c-2.982-.031-5.325-2.151-5.277-4.424.058-2.774,1.944-4.271,5.479-4.278,13.111-.026,25.831,1.836,37.406,8.454C785.3,586.367,792.807,592.055,800.225,597.855Z" transform="translate(-513.377 -93.802)" fill="#57637a"/>
  <path d="M803.859,575.434q.115.573.232,1.145c-.09,4.791-.133,9.587-1.792,14.18a202.357,202.357,0,0,0-15.213-23.476c-2.98-3.9-6.143-7.6-10.414-10.236-2.853-1.761-3.555-4.333-2.1-6.416,1.627-2.332,3.886-2.458,6.935-.758,6.574,3.668,10.655,9.684,15.035,15.467C799.05,568.656,800.915,572.437,803.859,575.434Z" transform="translate(-513.377 -93.802)" fill="#57637a"/>
  <path d="M732.517,402.565c-.282.946-.572,1.891-.845,2.84-1.057,3.676-3,4.722-6.678,3.594a9.012,9.012,0,0,1-5.036-5.979,150.623,150.623,0,0,1-3.579-14.993,1.565,1.565,0,0,1,.255-1.286c-1.739-9.986-3.068-20.025-3.876-30.131-.709-10.585-1.835-21.149-.885-31.79,3.258-36.513,13.26-70.669,34.954-100.785,10.309-14.313,22.765-26.093,39.052-33.418.655-.295,2.078-.345,1.119-1.765.636-.933,1.706-.957,2.641-1.242,11.451-3.486,23.331-4.616,35.112-6.192,15.272-2.043,30.662-1.322,45.987-1.015,14.223.284,28.516.387,42.579,3.158,13.177,2.6,26.609,4.031,39.348,8.615,2.961,1.065,6.316.779,9.032,2.662-1.55,1.057.006,1.392.5,1.778a124.374,124.374,0,0,1,14.81,14.021c20.468,22.342,30.962,49.317,37.061,78.457a339.624,339.624,0,0,1,5.912,43.366c.488,25.835-4.193,51-9.8,76.053a25.3,25.3,0,0,1-.7,2.621c-.7,2.044-1.986,3.508-4.262,3.639a4.118,4.118,0,0,1-4.36-2.983c-.325-2.544-2.406-4.155-3.365-6.411-4.079-9.6-6.424-19.678-8.652-29.8-2.481-11.271-4.911-22.555-6.858-33.932-.37-2.162-1.324-2.846-3.436-2.783a118.951,118.951,0,0,1-28.707-2.342c-13.114-2.818-24.781-8.68-35.722-16.277a224.357,224.357,0,0,1-23.65-18.821c-5.513-5.05-9.954-11.071-14.552-16.927-6.129-7.805-11.887-15.858-15.666-25.134a.462.462,0,0,0-.443-.3c-.594.332-.692,1-.95,1.552a127.119,127.119,0,0,1-27.488,38c-10.109,9.637-21.061,18.312-33.783,24.529-11.028,5.389-21.978,10.915-33.7,14.7a85.644,85.644,0,0,1-15.055,3.768c-2.332.307-3.417,1.366-3.874,3.726-3.53,18.2-7.444,36.318-11.488,54.409A6.629,6.629,0,0,1,732.517,402.565Z" transform="translate(-513.377 -93.802)" fill="#59372c"/>
  <path d="M961.7,194.838c-6.484-.533-12.4-3.292-18.655-4.723-12.513-2.867-25.16-5.045-37.866-6.884-9.891-1.431-19.857-1.295-29.8-1.748-11.347-.517-22.679-.233-34.016-.359-10.066-.112-19.964,1.658-29.913,2.944-8.274,1.07-16.319,3.085-24.446,4.783-6.766-6.179-12.036-13.3-14.054-22.449,4.892-.133,9.8-.408,14.672-.429,10.233-.047,20.478.441,30.7,1.014,7.687.43,15.386.646,23.062,1.117,10.469.643,20.949,1.146,31.414,1.935,8.747.659,17.473,1.518,26.191,2.4,18.56,1.872,36.888,5.079,54.742,10.664,5.445,1.7,10.925,3.3,16.393,4.928a5.473,5.473,0,0,1,2.443,1.118A23.741,23.741,0,0,1,961.7,194.838Z" transform="translate(-513.377 -93.802)" fill="#1f0c08"/>
  <path d="M732.517,402.565c.21-5.214,2.009-10.115,3.027-15.168,2.934-14.566,6.058-29.095,8.967-43.666.4-2.006,1.533-2.372,3.117-2.666,23.424-4.345,44.559-14.315,64.176-27.356A130.117,130.117,0,0,0,859.3,257.768c.1-.229.348-.395.716-.8a94.852,94.852,0,0,0,8.925,16.894A162.422,162.422,0,0,0,929.5,328.627c10.384,5.481,21.675,8.093,33.383,9.106,5.725.5,11.431.442,17.149.4,1.549-.011,2.1.4,2.415,2.046,3.711,19.308,7.035,38.708,12.936,57.521a50.979,50.979,0,0,0,5.04,11.726,3.762,3.762,0,0,1,.43,2.362,48.705,48.705,0,0,1-8.766-16.062c-4.672-14.835-11.722-28.879-14.712-44.273-.175-.9-.51-1.674-1.673-1.836-7.5-1.046-15.025-1.952-22.4-3.747-.263-.064-.622.271-.936.42-2.259.381-3.692-1.3-5.446-2.179a72.817,72.817,0,0,0-32.3-13.518,1.519,1.519,0,0,1-1.024-.7,115.786,115.786,0,0,1-27.651-22.625c-9.392-10.382-18.779-20.869-25.878-33.092-1.7-2.92-1.552-2.725-3.9-.121-6.179,6.859-12.4,13.66-19.094,20.067-14.283,13.665-29.662,25.7-46.992,35.3-11.6,6.424-23.546,12.1-35.545,17.694a4.186,4.186,0,0,0-2.466,2.94c-3.832,13.106-6.817,26.476-11.92,39.19a84.81,84.81,0,0,1-6.076,11.854A3.283,3.283,0,0,1,732.517,402.565Z" transform="translate(-513.377 -93.802)" fill="#d07850"/>
  <path d="M837.3,341.474c0,1.136.011,1.772,0,2.408-.053,2.518-1.342,3.642-3.835,3.006-12.311-3.143-24.975-3.8-37.514-5.24-7.178-.823-13.373,2.46-19.138,6.48-.931.65-2.014,2.357-3.129,1.06-.948-1.1-.143-2.555.883-3.84,5.738-7.177,13.456-10.262,22.274-11.576,11.9-1.774,23.865-1.554,35.83-1.641,2.563-.019,3.633,1.579,3.975,3.629S837.5,339.862,837.3,341.474Z" transform="translate(-513.377 -93.802)" fill="#59372c"/>
  <path d="M913.591,329.892l1.167.187c6.491,3.168,12.889,6.535,19.687,9.041,4.307,1.587,8.724,2.859,12.978,4.593l4.941,2.58c.5,2.485-1.287,2.135-2.558,1.821-4.9-1.21-9.863-2.3-14.628-3.942-12.469-4.291-24.731-2.951-37.007.719a69.171,69.171,0,0,0-9.2,3.195c-2.265,1.043-3.535-.024-4.218-1.94-1.381-3.874-.31-7.712.7-11.448.317-1.173,1.85-1.745,3.1-1.913C896.883,331.666,905.177,330.247,913.591,329.892Z" transform="translate(-513.377 -93.802)" fill="#59372c"/>
  <path d="M859.992,492.6c-10.769-.532-21.521-1.181-31.477-6.047a13.29,13.29,0,0,1-3.523-2.523,2.44,2.44,0,0,1-.355-3.454c.868-1.006,2.182-.8,3.279-.247,22.406,11.305,44.312,9.79,65.813-2.517,2.282-1.306,4.592-2.565,6.891-3.843,1.392-.775,2.718-.745,3.493.768a2.458,2.458,0,0,1-1.148,3.484c-10.225,5.91-20.5,11.73-32.395,13.65A45.526,45.526,0,0,1,859.992,492.6Z" transform="translate(-513.377 -93.802)" fill="#faccb2"/>
  <path d="M860.218,405.652c.335,11.63-1.307,23.076-3.191,34.5-.235,1.424-.427,2.857-.614,4.289-.554,4.225,2.064,6.855,7.044,7.213,3.52.254,6.81-.7,10.119-1.663,1.414-.41,3.132-1.453,3.939.691.777,2.067-.525,3.212-2.38,3.83-6.122,2.038-12.21,3.41-18.4.075-4.553-2.454-5.864-5.384-5.087-10.5,1.353-8.917,2.67-17.854,3.513-26.828.631-6.731,1.276-13.523.163-20.312a35.033,35.033,0,0,1-.078-5.169c-.019-1.55.5-2.794,2.226-2.8,1.551-.006,1.962,1.144,2.219,2.561C860.545,396.231,860.031,400.951,860.218,405.652Z" transform="translate(-513.377 -93.802)" fill="#faccb2"/>
  <path d="M1031.536,380.17c2.036-.533,3.435-1.166,5.035-1.134,3.236.064,4.656,1.313,4.687,4.614.044,4.633-1.764,8.828-3.327,13.067a9.983,9.983,0,0,1-2.552,4.416c-1.279,1.116-2.732,1.376-3.919.345-1.118-.971-.5-2.2.277-3.382,2.478-3.761,3.551-8.087,4.55-12.4.366-1.582-.483-1.925-1.89-1.246a22.275,22.275,0,0,0-5.125,3.533,2.326,2.326,0,0,1-2.979.507,2.536,2.536,0,0,1-1.248-3.022c3.036-10.9,5.944-21.855,12.5-31.361.81-1.175,1.653-2.18,3.16-2.28.986-.065,2.12-.214,2.588.963a2.586,2.586,0,0,1-.534,2.771C1036.849,362.617,1034.481,371.272,1031.536,380.17Z" transform="translate(-513.377 -93.802)" fill="#faccb2"/>
  <path d="M716.634,386.741c.953,3.931,2.157,7.822,2.792,11.8A19.571,19.571,0,0,0,724.994,409c-1.008,2.065-2.455,1.272-3.791.5a19.172,19.172,0,0,0-7.1-2.568c-.865-.114-1.885-.262-2.508.627-.692.987-.214,1.951.332,2.787a41.655,41.655,0,0,0,5.064,6.362,6.467,6.467,0,0,1,1.808,2.676,2.267,2.267,0,0,1-.724,2.475c-.715.574-1.826.991-2.5.254-3.623-3.953-8.339-7.3-9.141-13.068-.693-4.973,3.4-7.928,9.044-6.968.86.146,1.909.974,2.525.128.564-.775-.412-1.651-.758-2.456-2.687-6.252-5.524-12.432-9.766-17.822a54.983,54.983,0,0,0-4.065-4.373c-1.194-1.219-1.577-2.445-.207-3.749,1.319-1.256,2.385-.587,3.531.421C710.8,377.8,713.8,382.2,716.634,386.741Z" transform="translate(-513.377 -93.802)" fill="#faccb2"/>
  <path d="M815.439,381.173c-.357,3.3-.315,7.138-1.605,10.791-.709,2.007-1.791,3.687-4.127,3.764-2.545.084-4.666-.83-5.56-3.461-2.367-6.959-2.475-13.891.557-20.692.921-2.068,2.4-3.816,4.905-3.714,2.441.1,3.5,2.079,4.322,4.039A23.726,23.726,0,0,1,815.439,381.173Z" transform="translate(-513.377 -93.802)" fill="#59372c"/>
  <path d="M919.61,382.636a18.908,18.908,0,0,1-1.647,8.334c-1.836,3.555-5.652,3.878-7.819.756-3.205-4.62-3.182-14.8.045-19.472,1.97-2.854,4.658-2.988,6.959-.348C918.8,373.8,919.541,376.759,919.61,382.636Z" transform="translate(-513.377 -93.802)" fill="#59372c"/>
  <path d="M858.741,508.9c5.921.452,11.741-1.32,17.338-4.109,1.943-.969,3.935-1.847,5.942-2.678,1.391-.576,2.626-.488,3.425,1.1s-.191,2.551-1.276,3.126c-9.055,4.8-18.414,8.521-28.986,7.417-.714-.074-1.4-.363-2.115-.472-1.611-.246-1.689-1.391-1.62-2.644s.807-1.742,1.975-1.743C855.056,508.9,856.689,508.9,858.741,508.9Z" transform="translate(-513.377 -93.802)" fill="#faccb2"/>
  <path d="M947.423,343.713a.814.814,0,0,1-.966.25c-10.615-3.452-21.125-7.154-30.754-12.945a5.519,5.519,0,0,1-.945-.939,67.216,67.216,0,0,1,28.2,10.531C944.489,341.583,945.938,342.676,947.423,343.713Z" transform="translate(-513.377 -93.802)" fill="#51281c"/>
</svg>
